<svg width="39" height="24" viewBox="0 0 39 24" xmlns="http://www.w3.org/2000/svg" xmlns:xlink="http://www.w3.org/1999/xlink"><g transform="translate(-40)"><clipPath id="a" clip-rule="evenodd"><path d="M40 0h39v24H40V0z" fill="#FFF"/></clipPath><g clip-path="url(#a)"><use xlink:href="#path0_fill" transform="translate(40 22)" fill="#FFF"/><use xlink:href="#path0_fill" transform="translate(40 18)" fill="#FFF"/><use xlink:href="#path1_stroke" transform="translate(43.5 1)" fill="#FFF"/></g></g><defs><path id="path0_fill" d="M0 0h39v2H0V0z"/><path id="path1_stroke" d="M13.5 3.16l.13.99-.13-.99zM16 0l-.001 1L16 0zm2.495 3.16l-.132.99.132-.99zM0 18a145.036 145.036 0 0 1 .995.1v-.003a2.392 2.392 0 0 1 .014-.117c.012-.087.03-.219.058-.39a20.148 20.148 0 0 1 2-5.941C4.82 8.334 7.956 4.9 13.632 4.151l-.262-1.983C6.868 3.026 3.255 7.012 1.3 10.715a22.147 22.147 0 0 0-2.205 6.551 13.873 13.873 0 0 0-.088.629v.005L0 18zM13.63 4.15C14.374 4.054 15.162 4 16 4V2c-.922 0-1.799.058-2.63.168l.26 1.983zm-.13-.99l.972.236v-.001a3.85 3.85 0 0 1 .027-.1 6.791 6.791 0 0 1 .49-1.257c.177-.342.374-.628.575-.816.193-.181.332-.222.435-.222l.002-2c-.763 0-1.368.353-1.806.764-.43.404-.75.908-.982 1.355a8.8 8.8 0 0 0-.683 1.797l-.001.004v.002l.971.237zM16 4c.838 0 1.625.053 2.363.15l.263-1.982C17.796 2.058 16.922 2 16 2v2zm2.363.15c5.64.748 8.65 4.17 10.284 7.476a19.494 19.494 0 0 1 1.8 5.932 11.88 11.88 0 0 1 .053.485l.002.021v.004c0-.001 0-.002.998-.068l.998-.068v-.005l-.001-.01-.003-.036a13.79 13.79 0 0 0-.064-.583c-.05-.388-.137-.938-.28-1.601a21.493 21.493 0 0 0-1.71-4.958c-1.837-3.714-5.33-7.712-11.814-8.571l-.263 1.983zM16 1c.103 0 .242.041.435.223.2.188.396.473.573.816a6.777 6.777 0 0 1 .511 1.337l.005.018v.002l.972-.237c.972-.235.971-.236.971-.236V2.92l-.001-.004a1.73 1.73 0 0 0-.003-.01l-.009-.035a8.791 8.791 0 0 0-.157-.522 8.775 8.775 0 0 0-.511-1.228c-.231-.447-.55-.952-.98-1.356C17.368-.645 16.763-.999 16-1l-.002 2z"/></defs></svg>