<?xml version="1.0" standalone="no"?>
<!DOCTYPE svg PUBLIC "-//W3C//DTD SVG 1.1//EN" "http://www.w3.org/Graphics/SVG/1.1/DTD/svg11.dtd" >
<svg xmlns="http://www.w3.org/2000/svg" xmlns:xlink="http://www.w3.org/1999/xlink" version="1.1">
<metadata></metadata>
<defs>
<font id="franklingothicbookcmpcregular" horiz-adv-x="439" >
<font-face units-per-em="1000" ascent="805" descent="-195" />
<missing-glyph horiz-adv-x="233" />
<glyph horiz-adv-x="0" />
<glyph horiz-adv-x="333" />
<glyph unicode=" "  horiz-adv-x="233" />
<glyph unicode="&#x09;" horiz-adv-x="233" />
<glyph unicode="&#xa0;" horiz-adv-x="233" />
<glyph unicode="!" horiz-adv-x="285" d="M97 686h91l-24 -515h-45zM99 109h85v-109h-85v109z" />
<glyph unicode="&#x22;" horiz-adv-x="443" d="M116 686h71l-8 -266h-55zM256 686h71l-8 -266h-55z" />
<glyph unicode="#" d="M136 484l32 202h61l-33 -202h92l32 202h61l-33 -202h90l-9 -58h-89l-24 -151h89l-9 -56h-89l-35 -219h-61l34 219h-90l-35 -219h-61l35 219h-93l9 56h92l24 151h-92l9 58h93zM164 276l90 -1l25 151h-91z" />
<glyph unicode="$" d="M250 614v-225q82 -35 115 -71t33 -111q0 -83 -44 -132t-104 -53v-88h-48v87q-65 3 -103 42t-57 110l63 23q20 -99 97 -112v242q-69 27 -101.5 64.5t-32.5 108.5q0 61 31.5 112t102.5 63v68h48v-67q60 -9 94.5 -39.5t49.5 -88.5l-60 -22q-30 82 -84 89zM202 405v209 q-22 -3 -36.5 -16t-20 -32t-7.5 -31t-2 -23q0 -42 15.5 -65t50.5 -42zM250 311v-228q37 4 59 37t22 80q0 43 -18.5 67t-62.5 44z" />
<glyph unicode="%" horiz-adv-x="702" d="M149 694q56 0 90 -49.5t34 -161.5q0 -215 -124 -215q-123 0 -123 215q0 63 8.5 106t37 74t77.5 31zM144 645q-27 0 -42 -31.5t-15 -123.5q0 -73 9.5 -113.5t22 -50.5t31.5 -10q61 0 61 147q0 50 -5 85.5t-11.5 54t-17 28.5t-17.5 12t-16 2zM175 0l294 686h57l-294 -686 h-57zM552 419q13 0 24.5 -2t31 -13.5t33.5 -32t24.5 -63t10.5 -100.5q0 -215 -124 -215t-124 215q0 211 124 211zM548 370q-18 0 -29 -8t-19.5 -43.5t-8.5 -102.5q0 -99 15 -137t47 -38q31 0 45.5 36.5t15.5 78.5v32q-1 52 -5.5 88t-10 54t-15.5 27.5t-16.5 11t-18.5 1.5z " />
<glyph unicode="&#x26;" horiz-adv-x="475" d="M401 376l60 -16q-9 -148 -82 -262q10 -17 28 -26.5t33 -9.5q16 0 29 5v-67q-22 -9 -48 -9q-55 0 -86 50q-22 -26 -59.5 -40t-71.5 -14q-67 0 -119.5 49.5t-52.5 153.5q0 68 32.5 122t89.5 85q-48 97 -48 159q0 51 30 97t90 46q20 0 39 -6t39 -20t32.5 -45t12.5 -74 q0 -114 -110 -178q78 -165 105 -215q19 33 31 77t26 138zM214 428q70 48 70 127q0 84 -53 84q-26 0 -40.5 -22t-14.5 -56q0 -11 0.5 -18t0.5 -13t2 -13t3 -11.5t5 -14.5t6 -15.5t9 -21.5t12 -26zM179 344q-41 -40 -56.5 -71.5t-15.5 -81.5q0 -69 31 -105t72 -36q50 0 92 44 q-24 48 -51.5 100.5t-41 80.5t-30.5 69z" />
<glyph unicode="'" horiz-adv-x="284" d="M107 686h70l-8 -266h-54z" />
<glyph unicode="(" horiz-adv-x="264" d="M176 686h58q-108 -189 -108 -429q0 -123 26 -221.5t82 -207.5h-58q-128 208 -128 429q0 222 128 429z" />
<glyph unicode=")" horiz-adv-x="264" d="M30 686h59q69 -123 98 -216.5t29 -212.5q0 -224 -127 -429h-59q108 190 108 429q0 238 -108 429z" />
<glyph unicode="*" horiz-adv-x="441" d="M198 545l-7 141h60l-8 -143l97 68l31 -55l-107 -49l108 -52l-30 -54l-99 66l8 -144h-60l7 144l-98 -65l-31 53l109 52l-108 49l31 55z" />
<glyph unicode="+" d="M253 374h147v-62h-147v-150h-66v150h-148v62h148v150h66v-150z" />
<glyph unicode="," horiz-adv-x="212" d="M63 111h88v-111l-57 -128h-44l48 128h-35v111z" />
<glyph unicode="-" horiz-adv-x="247" d="M36 290h175v-63h-175v63z" />
<glyph unicode="." horiz-adv-x="212" d="M61 111h90v-111h-90v111z" />
<glyph unicode="/" horiz-adv-x="403" d="M5 -172l296 858h61l-296 -858h-61z" />
<glyph unicode="0" horiz-adv-x="440" d="M219 699q57 0 96.5 -33.5t58.5 -90t26.5 -111.5t7.5 -117q0 -360 -188 -360t-188 360q0 78 8.5 137.5t28.5 110t58 77.5t92 27zM212 636q-19 0 -34 -6.5t-25 -21t-18 -28t-12 -38t-7 -40t-4 -45t-1 -41v-40.5v-16q0 -164 24.5 -237t85.5 -73q108 0 108 264q0 48 -1.5 83 t-8 83.5t-18 79.5t-34.5 53.5t-55 22.5z" />
<glyph unicode="1" horiz-adv-x="442" d="M284 693v-632h102v-61h-289v61h109v518q-23 -34 -49 -56q-24 -21 -66 -44v77q30 15 58 43q62 61 78 94h57z" />
<glyph unicode="2" horiz-adv-x="440" d="M120 73h270v-73h-352v73q103 103 114 115q76 82 118 159q41 75 41 148t-32 109q-24 28 -64 28q-44 0 -70 -32q-32 -38 -39 -119l-68 19q3 44 21 87.5t47 70.5q45 41 115 41t116 -46q53 -53 53 -150q0 -89 -51 -180q-40 -72 -121 -157q-56 -59 -98 -93z" />
<glyph unicode="3" horiz-adv-x="440" d="M152 324v67h52q53 0 79 26q28 28 28 96q0 59 -27 91q-24 28 -67 28q-38 0 -63 -23q-30 -29 -41 -85l-63 18q13 84 68 125q43 32 105 32q72 0 117 -47q49 -52 49 -137q0 -59 -27 -102q-25 -40 -70 -50q46 -12 77 -49q39 -50 39 -124q0 -91 -53 -146q-27 -27 -66 -42 t-77 -15q-62 0 -106 30q-66 43 -74 136l66 20q2 -29 15 -57t34 -42q28 -20 72 -20q49 0 80 38q30 36 30 94q0 53 -27 90q-33 48 -101 48h-49z" />
<glyph unicode="4" d="M276 167h-235v62l217 470h94v-470h73v-62h-73v-167h-76v167zM276 229l5 400l-170 -400h165z" />
<glyph unicode="5" horiz-adv-x="440" d="M78 686h294l-5 -72h-225l-8 -219q16 28 35 43q28 23 70 23q73 0 115 -50q51 -61 51 -184q0 -124 -59 -186q-51 -54 -131 -54q-59 0 -101 31q-55 41 -72 130l64 21q16 -68 49 -94q26 -21 62 -21q52 0 82 47q27 42 27 122q0 87 -26 128q-26 42 -73 42t-72 -30 q-9 -9 -34 -62l-58 14z" />
<glyph unicode="6" d="M400 560l-65 -23q-14 46 -26 63q-24 32 -68 32q-70 0 -98 -90q-30 -99 -28 -199q17 50 41 72q33 33 89 33q64 0 110 -51q53 -59 53 -173q0 -124 -59 -187q-48 -50 -121 -50q-85 0 -136 79q-51 77 -51 252q0 224 71 315q52 66 134 66q57 0 99 -38q39 -35 55 -101zM235 385 q-45 0 -73 -40q-33 -47 -33 -126q0 -83 32 -126q28 -39 73 -39q47 0 74 41q25 39 25 126q0 84 -30 128q-25 36 -68 36z" />
<glyph unicode="7" horiz-adv-x="441" d="M327 613h-264l6 73h328v-52q-42 -72 -58 -104q-51 -106 -87 -262q-35 -148 -28 -268h-80q-1 114 33 263q31 135 93 256q31 59 57 94z" />
<glyph unicode="8" d="M285 365q48 -22 77 -53q50 -53 50 -133q0 -36 -14.5 -76t-37.5 -64q-50 -52 -143 -52q-88 0 -135 47q-55 52 -55 138q0 76 47 129q29 32 77 57q-37 16 -64 55q-34 50 -34 103q0 89 55 141q44 42 121 42q68 0 113 -44q48 -48 48 -125q0 -68 -39 -115q-25 -30 -66 -50z M222 394q48 22 71 48q30 32 30 83q0 49 -24 76q-28 31 -74 31q-49 0 -76 -33q-22 -26 -22 -73q0 -57 35 -94q24 -24 60 -38zM212 323q-42 -12 -70 -44q-38 -44 -38 -100q0 -59 34 -93q32 -32 82 -32q53 0 89 36q30 31 30 85q0 68 -58 112q-28 21 -69 36z" />
<glyph unicode="9" d="M40 122l64 20q7 -41 30 -64q24 -24 61 -24q76 0 105 100q23 80 21 187q-14 -41 -37 -64q-36 -36 -89 -36q-73 0 -120 63q-45 60 -45 160q0 108 53 174q49 61 128 61q78 0 124 -59q59 -77 59 -275q0 -247 -84 -331q-47 -47 -115 -47q-57 0 -100 32q-49 36 -55 103z M208 632q-42 0 -68 -33q-34 -41 -34 -133q0 -84 31 -124q27 -34 68 -34q51 0 81 51q23 39 23 109q0 87 -30 128q-27 36 -71 36z" />
<glyph unicode=":" horiz-adv-x="200" d="M50 508h90v-112h-90v112zM50 112h90v-112h-90v112z" />
<glyph unicode=";" horiz-adv-x="213" d="M63 111h88v-111l-57 -128h-44l48 128h-35v111zM63 508h90v-112h-90v112z" />
<glyph unicode="&#x3c;" d="M408 586v-72l-300 -168l300 -168v-71l-377 208v62z" />
<glyph unicode="=" d="M400 371h-361v63h361v-63zM400 252h-361v63h361v-63z" />
<glyph unicode="&#x3e;" d="M31 107v71l300 168l-300 168v71l377 -208v-62z" />
<glyph unicode="?" horiz-adv-x="424" d="M224 171h-71v33q0 32 1 44t7 35t22 43.5t44 47.5q21 20 32.5 34.5t23.5 43.5t12 63q0 61 -25.5 91t-62.5 30q-52 0 -72.5 -38.5t-30.5 -115.5l-67 16q2 28 8.5 55.5t23 64t52.5 59t87 22.5q48 0 82.5 -18t52 -47.5t25 -59t7.5 -60.5q0 -41 -16.5 -79t-33 -57.5 t-43.5 -46.5q-38 -37 -48 -60.5t-10 -62.5v-37zM145 109h86v-109h-86v109z" />
<glyph unicode="@" horiz-adv-x="580" d="M376 520h53l-30 -213q-7 -53 -7 -72q0 -20 8 -28.5t17 -8.5q15 0 29.5 17.5t26 65t11.5 116.5q0 60 -13 107t-32 74t-44.5 45t-47 24t-42.5 6q-23 0 -48.5 -8.5t-54.5 -32t-52 -58.5t-38 -94t-15 -133q0 -127 61 -209.5t163 -82.5q75 0 133 39l19 -46q-11 -5 -30 -13 t-26 -11t-20.5 -7.5t-23 -6t-23.5 -3t-31 -1.5q-126 0 -205.5 89t-79.5 246q0 102 28 185.5t90.5 138.5t151.5 55q78 0 133 -42.5t79.5 -107t24.5 -144.5q0 -128 -39.5 -196.5t-91.5 -68.5q-23 0 -41 15t-24 45q-5 -29 -26.5 -46.5t-51.5 -17.5q-40 0 -69.5 40.5 t-29.5 130.5q0 105 37.5 163t92.5 58q59 0 69 -72zM301 468q-33 0 -49 -52t-16 -106q0 -23 1 -38t4 -34.5t12 -29.5t22 -10t25 11t24 50.5t15 105.5q1 23 0 45q-3 58 -38 58z" />
<glyph unicode="A" horiz-adv-x="385" d="M153 686h82l154 -686h-80l-43 196h-155l-41 -196h-74zM253 263l-63 342l-65 -342h128z" />
<glyph unicode="B" d="M67 0v686h144q102 0 145 -47q41 -45 41 -123q0 -63 -21 -99q-20 -37 -65 -51q50 -17 78 -58q29 -43 29 -114q0 -104 -47 -151q-20 -20 -49 -30t-49 -11.5t-55 -1.5h-151zM145 393h64q61 0 86 25q24 24 24 85q0 70 -35 97q-25 19 -78 19h-61v-226zM145 67h74q64 0 89 25 q31 31 31 107q0 75 -39 107q-25 20 -84 20h-71v-259z" />
<glyph unicode="C" horiz-adv-x="422" d="M414 509l-71 -17q-12 85 -41 116q-22 24 -57 24q-44 0 -69 -32q-29 -36 -40.5 -117.5t-11.5 -155.5q0 -159 37 -222q29 -51 82 -51q36 0 60 26q32 34 40 108l71 -13q-23 -108 -64 -148q-40 -40 -108 -40q-99 0 -150 85q-49 78 -49 267q0 91 19 177t61 132q47 51 118 51 q69 0 113 -44q46 -46 60 -146z" />
<glyph unicode="D" horiz-adv-x="493" d="M67 0v686h114q76 0 122 -17t79 -63q34 -46 51 -119t17 -139q0 -62 -15.5 -131t-45.5 -119q-32 -53 -77.5 -75.5t-119.5 -22.5h-125zM145 67h54q58 0 89 25.5t50 71.5q31 73 31 183q0 115 -32 183q-18 38 -44.5 59t-48 25.5t-50.5 4.5h-49v-552z" />
<glyph unicode="E" horiz-adv-x="387" d="M146 619v-229h182v-67h-182v-256h242v-67h-321v686h315v-67h-236z" />
<glyph unicode="F" horiz-adv-x="351" d="M146 619v-232h185v-67h-185v-320h-79v686h304v-67h-225z" />
<glyph unicode="G" horiz-adv-x="475" d="M439 340v-350h-50l-14 85q-16 -34 -41 -55q-39 -33 -90 -33q-106 0 -158 96q-43 78 -43 253q0 210 70 296q54 67 147 67q58 0 98 -30q55 -41 74 -151l-68 -23q-15 81 -43 109t-68 28q-45 0 -76 -33q-53 -56 -53 -271q0 -153 37 -218q32 -56 92 -56q53 0 86 54 q14 23 21 51.5t7 55.5v58h-114v67h186z" />
<glyph unicode="H" horiz-adv-x="493" d="M145 395h203v291h78v-686h-78v328h-203v-328h-78v686h78v-291z" />
<glyph unicode="I" horiz-adv-x="212" d="M67 0v686h78v-686h-78z" />
<glyph unicode="J" horiz-adv-x="282" d="M148 686h79v-461v-23.5v-25t-0.5 -22.5t-1.5 -23.5t-2.5 -21t-4 -21.5t-6 -18.5t-8.5 -19t-11 -16.5q-37 -47 -106 -47q-56 0 -82 13v61q28 -7 61 -7q43 0 61 20q22 26 22 153z" />
<glyph unicode="K" d="M458 0h-87l-145 361l-81 -134v-227h-78v686h78v-345l191 345h86l-150 -250z" />
<glyph unicode="L" horiz-adv-x="351" d="M67 0v686h78v-619h214v-67h-292z" />
<glyph unicode="M" horiz-adv-x="616" d="M67 0v686h105l136 -558l139 558h102v-686h-76l6 585l-146 -585h-58l-143 588l5 -588h-70z" />
<glyph unicode="N" horiz-adv-x="510" d="M67 0v686h93l218 -537l-4 537h69v-686h-76l-234 587l3 -587h-69z" />
<glyph unicode="O" horiz-adv-x="493" d="M246 699q95 0 147 -78q57 -83 57 -278q0 -184 -61 -277q-31 -48 -65.5 -63.5t-77.5 -15.5q-94 0 -147 78q-56 84 -56 278q0 191 60 278q53 78 143 78zM246 632q-43 0 -72 -33q-50 -57 -50 -256q0 -75 11.5 -149.5t39.5 -106.5q27 -33 71 -33q46 0 73 33q50 57 50 256 t-50 256q-30 33 -73 33z" />
<glyph unicode="P" horiz-adv-x="406" d="M67 0v686h134q109 0 156 -55q46 -53 46 -151q0 -73 -31 -123q-47 -78 -159 -78h-67v-279h-79zM146 346h64q51 0 77 23q35 32 35 111q0 84 -37 117q-26 22 -79 22h-60v-273z" />
<glyph unicode="Q" horiz-adv-x="493" d="M411 -85v-65q-29 -12 -63 -12q-60 0 -92 36q-13 15 -20 37.5t-7.5 34t-2.5 42.5q-84 13 -127 77q-56 84 -56 278q0 188 60 278q53 78 143 78q95 0 147 -78q57 -85 57 -278q0 -178 -61 -277q-35 -56 -89 -72q-1 -53 8 -68q14 -24 48 -24q20 0 55 13zM246 632 q-43 0 -72 -33q-50 -58 -50 -256q0 -197 51 -256q28 -33 73 -33q42 0 71 33q50 58 50 256t-50 256q-30 33 -73 33z" />
<glyph unicode="R" d="M67 0v686h153q58 0 95.5 -14.5t63.5 -53.5q33 -50 33 -122q0 -68 -25 -116q-25 -49 -69 -64l109 -316h-84l-100 300h-98v-300h-78zM145 367h76q19 0 29.5 1t25.5 7.5t27 19.5q29 31 29 99t-32 99q-27 26 -84 26h-71v-252z" />
<glyph unicode="S" horiz-adv-x="422" d="M390 532l-71 -17q-9 59 -42 91q-28 26 -68 26q-49 0 -74 -35q-22 -30 -22 -77q0 -57 42 -89q18 -13 102 -55q77 -37 103 -68q41 -48 41 -126q0 -87 -52 -141t-137 -54q-61 0 -110 32q-73 48 -87 153l71 19q16 -81 53 -112q30 -25 77 -25t77 32q27 30 27 90q0 48 -20 76 q-21 28 -76 56q-12 6 -38 18.5t-36.5 18t-26 14.5t-25.5 18q-60 50 -60 137t49 136q48 49 125 49q60 0 106 -35q57 -44 72 -132z" />
<glyph unicode="T" horiz-adv-x="332" d="M126 0v619h-132v67h344v-67h-134v-619h-78z" />
<glyph unicode="U" horiz-adv-x="457" d="M55 686h78v-479q0 -93 19 -121q24 -32 76 -32q53 0 78 36q21 32 21 113v483h75v-479q0 -39 -0.5 -56.5t-9.5 -50.5t-27 -56q-46 -57 -139 -57q-95 0 -139 56q-16 21 -23.5 57t-8 51.5t-0.5 55.5v479z" />
<glyph unicode="V" horiz-adv-x="386" d="M152 0l-157 686h83l118 -583l116 583h79l-156 -686h-83z" />
<glyph unicode="W" horiz-adv-x="596" d="M127 0l-121 686h78l87 -543l98 543h64l107 -543l81 543h70l-115 -686h-76l-101 528l-97 -528h-75z" />
<glyph unicode="X" horiz-adv-x="385" d="M151 358l-132 328h84l92 -247l95 247h75l-133 -316l152 -370h-88l-109 285l-111 -285h-76z" />
<glyph unicode="Y" horiz-adv-x="368" d="M145 0v290l-157 396h81l120 -318l117 318h74l-157 -396v-290h-78z" />
<glyph unicode="Z" horiz-adv-x="386" d="M102 71h265v-71h-349v71l255 548h-242v67h331v-55z" />
<glyph unicode="[" horiz-adv-x="285" d="M173 632v-750h64v-54h-137v858h137v-54h-64z" />
<glyph unicode="\" horiz-adv-x="404" d="M398 -172h-61l-296 858h61z" />
<glyph unicode="]" horiz-adv-x="284" d="M111 632h-63v54h136v-858h-136v54h63v750z" />
<glyph unicode="^" horiz-adv-x="515" d="M105 377h-77l182 311h95l182 -311h-78l-152 254z" />
<glyph unicode="_" horiz-adv-x="515" d="M0 -68l515 -1v-65h-515v66z" />
<glyph unicode="`" horiz-adv-x="479" d="M114 673l46 57l140 -131l-27 -33z" />
<glyph unicode="a" horiz-adv-x="405" d="M358 0h-64q-12 41 -10 74q-14 -37 -38 -60q-28 -27 -76 -27q-62 0 -98 39t-36 113q0 116 90 156q62 27 151 21q2 97 -17 120q-19 24 -60 24q-46 0 -67 -37q-10 -15 -18 -57l-66 17q12 60 46 96q40 41 115 41q54 0 88 -23q19 -13 30.5 -29t16 -43t5.5 -44.5t1 -58.5v-204 q0 -81 7 -118zM277 255q-105 7 -140 -34q-25 -29 -25 -90q0 -41 19 -63q18 -20 47 -20q48 0 75 47q26 45 24 160z" />
<glyph unicode="b" horiz-adv-x="424" d="M62 0v686h72v-251q12 34 34 56q26 25 69 25q68 0 107 -54q44 -61 44 -204q0 -60 -10.5 -110t-17.5 -65.5t-13 -24.5q-42 -67 -118 -67q-44 0 -77 25q-25 19 -34 46l-17 -62h-39zM134 281v-87q0 -85 31 -120q21 -24 51 -24q46 0 70 47q23 45 23 164q0 78 -10 121 q-16 74 -75 74q-57 0 -79 -77q-11 -37 -11 -98z" />
<glyph unicode="c" horiz-adv-x="369" d="M349 356l-67 -14q-2 24 -10.5 52.5t-20.5 41.5q-20 24 -52 24q-36 0 -57 -30q-27 -38 -27 -161q0 -156 26 -191q23 -30 56 -30q40 0 61 32q20 31 24 84l67 -8q-3 -35 -17.5 -72.5t-33.5 -58.5q-36 -38 -99 -38q-70 0 -113 48q-50 56 -50 210q0 168 61 234q39 41 103 41 q61 0 95 -34q45 -44 54 -130z" />
<glyph unicode="d" horiz-adv-x="423" d="M361 686v-686h-62v66q-14 -33 -33 -49q-32 -26 -78 -26q-77 0 -117 72q-35 62 -35 180q0 149 54 220q42 53 105 53q42 0 66 -22q19 -18 28 -44v236h72zM290 186l-1 136q-1 84 -37 115q-23 19 -49 19q-38 0 -60 -34q-28 -44 -28 -162q0 -130 30 -176q22 -32 58 -32t59 26 q28 33 28 108z" />
<glyph unicode="e" horiz-adv-x="388" d="M368 246l-257 -1q-3 -113 28 -158q27 -39 74 -39q34 0 55 24q18 21 32 78l62 -17q-9 -43 -28 -75q-40 -71 -127 -71q-83 0 -127 65q-44 64 -44 194q0 146 54 217q42 57 112 57q72 0 115 -51q54 -65 51 -223zM113 304h176q-3 91 -22 121q-22 35 -65 35q-40 0 -64 -39 q-17 -28 -25 -117z" />
<glyph unicode="f" horiz-adv-x="210" d="M66 0v449h-64v59h64v41q0 72 17 103q28 47 96 47q32 0 58 -6v-61q-18 6 -39 6q-41 0 -54 -31q-6 -12 -6 -58v-41h79v-59h-79v-449h-72z" />
<glyph unicode="g" horiz-adv-x="367" d="M368 584v-64q-22 2 -33 -1q-31 -9 -33 -58q36 -39 36 -124q0 -69 -38 -117q-38 -49 -112 -49q-31 0 -47 8q-15 -3 -25.5 -17.5t-10.5 -29.5q0 -30 33 -44q22 -9 80 -13q65 -2 89 -12q71 -27 71 -113q0 -62 -39 -99q-50 -46 -144 -46q-82 0 -129 38q-41 33 -41 92 q0 43 26 72q17 18 40 31q-22 13 -35 32q-17 25 -17 52q0 35 21 60q16 19 39 29q-51 45 -51 136q0 80 44 130q38 43 102 43q43 0 67 -21q0 37 18 59q13 15 37.5 23t51.5 3zM194 460q-38 0 -56 -34q-16 -28 -16 -83q0 -61 22 -89q18 -23 48 -23q40 0 58 35q13 25 13 80 q0 66 -23 94q-16 20 -46 20zM132 18q-35 -25 -35 -70q0 -42 31 -63q27 -19 71 -19q52 0 78 19q29 21 29 63q0 53 -72 62q-50 6 -102 8z" />
<glyph unicode="h" horiz-adv-x="405" d="M62 0v686h71v-247q9 31 30 52q28 29 72 29q48 0 77 -29q18 -18 27 -48.5t10 -53t1 -72.5v-317h-71v317q0 76 -9 100q-14 39 -55 39q-34 0 -55 -30q-27 -39 -27 -149v-277h-71z" />
<glyph unicode="i" horiz-adv-x="195" d="M62 0v508h71v-508h-71zM59 686h77v-88h-77v88z" />
<glyph unicode="j" horiz-adv-x="193" d="M60 508h71v-526q0 -36 -1 -55t-9.5 -46.5t-25.5 -40.5q-23 -18 -85 -18h-40v64h35q34 0 46 18q9 14 9 81v523zM57 686h77v-87h-77v87z" />
<glyph unicode="k" horiz-adv-x="369" d="M62 0v686h72v-428l140 250h75l-111 -188l127 -320h-85l-88 249l-58 -92v-157h-72z" />
<glyph unicode="l" horiz-adv-x="195" d="M62 0v686h71v-686h-71z" />
<glyph unicode="m" horiz-adv-x="616" d="M62 0v508h66v-82q9 36 33 63q29 31 78 31q47 0 72 -33q20 -25 25 -67q6 39 34 69q29 31 74 31q47 0 76 -28q19 -18 28.5 -45.5t11 -49.5t1.5 -62v-335h-72l1 332q0 76 -17 100t-47 24q-33 0 -54 -31q-25 -38 -25 -148v-277h-71v319q0 83 -12 107q-15 30 -48 30 q-43 0 -64 -39q-18 -36 -18 -94v-323h-72z" />
<glyph unicode="n" horiz-adv-x="406" d="M62 0v508h66v-78q11 38 41 64t70 26q55 0 82 -33q14 -16 21 -45t8 -51.5t1 -68.5v-322h-71v322q0 75 -11 99q-16 35 -53 35t-58 -35q-25 -38 -25 -129v-292h-71z" />
<glyph unicode="o" horiz-adv-x="406" d="M203 520q65 0 107 -48q60 -69 60 -218q0 -152 -60 -219q-43 -48 -107 -48t-107 48q-60 67 -60 219q0 149 60 218q42 48 107 48zM115 254q0 -93 15 -143q19 -63 73 -63t73 63q15 50 15 143q0 92 -15 143q-20 63 -73 63t-73 -63q-15 -51 -15 -143z" />
<glyph unicode="p" horiz-adv-x="424" d="M62 -172v680h67v-84q9 38 34 63q29 29 75 29q67 0 105 -56q45 -65 45 -200q0 -125 -35 -192q-40 -77 -119 -77q-42 0 -70 22q-20 16 -30 39v-224h-72zM134 294v-92q0 -82 24 -117q22 -33 62 -33q48 0 69 41q20 37 20 161q0 118 -25 164q-20 38 -59 38t-62 -31 q-29 -39 -29 -131z" />
<glyph unicode="q" horiz-adv-x="423" d="M361 514v-686h-72v231q-10 -24 -31 -43q-28 -25 -66 -25q-75 0 -116 65q-40 62 -40 192q0 131 48 203q43 65 119 65q41 0 70 -26q22 -20 30 -49l20 73h38zM289 188v155q0 55 -26 86q-21 27 -56 27q-40 0 -63 -38q-29 -48 -29 -165q0 -128 30 -168q23 -33 58 -33 q37 0 62 32q24 32 24 104z" />
<glyph unicode="r" horiz-adv-x="247" d="M62 0v508h66v-101q7 37 31 70q28 40 72 40q16 0 24 -2v-80q-6 2 -22 2q-45 0 -72 -38q-6 -9 -11 -18.5t-8 -22.5t-4.5 -21t-2.5 -25.5t-1 -23v-26v-23.5v-239h-72z" />
<glyph unicode="s" horiz-adv-x="334" d="M310 393l-62 -17q-7 46 -31 67q-19 17 -48 17q-36 0 -55 -25q-14 -19 -14 -45q0 -41 30 -65q9 -8 70 -39q57 -31 72 -43q49 -39 49 -107q0 -69 -39 -108q-39 -41 -110 -41q-93 0 -133 67q-21 34 -26 75l63 17q4 -48 33 -76q24 -22 62 -22q40 0 59 25q17 20 17 53 q0 42 -29 67q-18 15 -91 52q-27 13 -45 26.5t-35 42.5t-17 67q0 66 44 107q34 32 94 32q59 0 94 -31q33 -29 48 -96z" />
<glyph unicode="t" horiz-adv-x="247" d="M149 508h86v-59h-86v-276v-14.5v-15t0.5 -13.5t1 -13t2 -11.5t4 -11.5t5.5 -8.5t7.5 -8t10.5 -5.5q20 -8 69 -1v-63q-30 -10 -62 -10q-61 0 -88 39q-22 30 -22 136v276h-57v59h57v127l72 9v-136z" />
<glyph unicode="u" horiz-adv-x="406" d="M344 508v-508h-66v61q-9 -25 -33 -46q-33 -28 -75 -28q-54 0 -85 32q-5 5 -9 11t-7 11t-5 13.5t-3.5 13t-2.5 15t-1.5 15t-1 17t-0.5 16.5v18v18v341h71v-345q0 -67 11 -85q17 -26 53 -26q55 0 72 54q11 35 11 74v328h71z" />
<glyph unicode="v" horiz-adv-x="316" d="M120 0l-120 508h74l88 -420l84 420h70l-120 -508h-76z" />
<glyph unicode="w" horiz-adv-x="473" d="M106 0l-104 508h72l66 -379l69 379h60l72 -379l68 379h62l-102 -508h-61l-73 376l-66 -376h-63z" />
<glyph unicode="x" horiz-adv-x="316" d="M121 269l-106 239h77l69 -176l65 176h69l-100 -239l119 -269h-77l-82 203l-80 -203h-73z" />
<glyph unicode="y" horiz-adv-x="299" d="M-4 508h73l83 -351l87 351h64l-145 -557q-22 -82 -47 -107q-27 -27 -67 -27q-18 0 -41 7v62q18 -7 37 -7q18 0 26 7t14 26q9 25 18 63l19 77z" />
<glyph unicode="z" horiz-adv-x="316" d="M38 508h254v-42l-190 -405h190v-61h-268v59l183 388h-169v61z" />
<glyph unicode="{" horiz-adv-x="265" d="M223 686v-53q-38 1 -48.5 -17.5t-10.5 -70.5v-157q0 -7 0.5 -26.5t0.5 -27.5t-3 -23t-8 -22.5t-16 -16.5t-26 -14q11 -3 19.5 -9t14 -11t9.5 -14.5t5.5 -15.5t2.5 -19t1 -19v-22v-22v-155q0 -25 1.5 -38.5t7 -27t18 -18.5t32.5 -5v-53q-70 -7 -100 27.5t-30 118.5v148v16 v16.5t-0.5 15t-2 15.5t-3.5 13t-5.5 11.5t-8.5 8t-12 6t-16 1.5v63q9 0 16 1.5t12 6t8.5 8.5t5.5 12t3.5 13t2 15.5t0.5 15v16v14.5v150q0 83 30.5 117.5t99.5 27.5z" />
<glyph unicode="|" horiz-adv-x="523" d="M226 686h71v-858h-71v858z" />
<glyph unicode="}" horiz-adv-x="264" d="M42 633v53q35 4 60 -4t38 -21t20.5 -35.5t9 -40.5t1.5 -44v-150q0 -27 1 -41t5.5 -30.5t14.5 -23.5t27 -7v-63q-17 0 -27.5 -7t-14.5 -23.5t-5 -28t-1 -34.5v-10v-148q0 -28 -2 -48t-10 -41.5t-21.5 -34t-37.5 -19t-58 -3.5v53q21 0 34 6.5t18 21t6 24.5t1 30v7v155v15 q0 29 0.5 42.5t5 31t15.5 27.5t30 16q-13 4 -22 9.5t-14.5 14.5t-9 15.5t-4.5 20.5t-1.5 20.5t0 25t0.5 24.5v157q0 20 -0.5 29t-3 23t-8.5 20t-18 11t-29 5z" />
<glyph unicode="~" horiz-adv-x="690" d="M141 601l-43 27q27 57 59 87.5t81 30.5q38 0 116 -36q71 -34 101 -34q60 0 93 72l44 -27q-55 -113 -159 -113q-37 0 -103 34t-92 34q-34 0 -54.5 -18.5t-42.5 -56.5z" />
<glyph unicode="&#xa3;" horiz-adv-x="440" d="M215 382h115v-56h-108q7 -37 7 -72q0 -55 -17.5 -110.5t-58.5 -78.5h78q58 0 91 15t50 60l48 -35q-14 -30 -32 -50.5t-33.5 -31.5t-40.5 -16t-42 -6t-49 -1h-213v65q86 3 116 42t30 106q0 10 -11 113h-89v56h82q-14 84 -14 118q0 57 16 98.5t42 61t50.5 28t48.5 8.5 q48 0 75.5 -20.5t56.5 -69.5l-54 -36q-30 56 -84 56q-73 0 -73 -108q0 -31 13 -136z" />
<glyph unicode="&#xa7;" horiz-adv-x="442" d="M364 566l-67 -11q-5 36 -27 60t-56 24q-10 0 -19.5 -2.5t-23 -10t-22 -26.5t-8.5 -48q0 -26 6.5 -44.5t24 -31.5t29 -19.5t40.5 -18.5q72 -30 95 -50q41 -37 41 -106q0 -90 -68 -136q79 -41 79 -152q0 -86 -46.5 -132.5t-126.5 -46.5q-140 0 -161 148l70 13 q17 -100 101 -100q12 0 23.5 2.5t29.5 11.5t29 32.5t11 58.5q0 50 -21 71t-83 46q-6 2 -17 7q-35 14 -53 23t-40.5 27t-32 44t-9.5 62q0 92 80 143q-37 29 -53 61t-16 78q0 45 15 78t38.5 49t45.5 22.5t43 6.5q63 0 102.5 -38.5t46.5 -94.5zM186 380q-57 -40 -57 -97 q0 -47 31 -70t104 -49q45 32 45 99q0 48 -27.5 70t-95.5 47z" />
<glyph unicode="&#xa8;" horiz-adv-x="479" d="M132 684h74v-84h-74v84zM271 684h74v-84h-74v84z" />
<glyph unicode="&#xa9;" horiz-adv-x="804" d="M522 435l-56 -12q-8 50 -21.5 67t-36.5 17q-70 0 -70 -166q0 -162 68 -162q27 0 39.5 19.5t20.5 60.5l56 -9q-20 -120 -115 -120q-131 0 -131 216q0 70 15 116.5t39 65t40.5 24t33.5 5.5q60 0 86.5 -36.5t31.5 -85.5zM402 -14q-148 0 -253.5 105t-105.5 252t105.5 252 t253.5 105t253.5 -105t105.5 -252t-105.5 -252t-253.5 -105zM402 40q126 0 213.5 88t87.5 215q0 126 -88 215t-213 89t-213 -89t-88 -215q0 -127 87.5 -215t213.5 -88z" />
<glyph unicode="&#xab;" horiz-adv-x="316" d="M114 262l46 -148h-40l-86 148l86 155h40zM235 262l47 -148h-41l-85 148l85 155h41z" />
<glyph unicode="&#xac;" horiz-adv-x="515" d="M409 0v207h-374v67h445v-274h-71z" />
<glyph unicode="&#xad;" horiz-adv-x="247" d="M36 290h175v-63h-175v63z" />
<glyph unicode="&#xae;" horiz-adv-x="804" d="M295 137v412h102q127 0 127 -117q0 -8 -1 -18t-6 -30t-18 -36.5t-33 -23.5l69 -187h-64l-63 176h-52v-176h-61zM356 363h42q65 0 65 68t-68 68h-39v-136zM402 -14q-148 0 -253.5 105t-105.5 252t105.5 252t253.5 105t253.5 -105t105.5 -252t-105.5 -252t-253.5 -105z M402 40q126 0 213.5 88t87.5 215q0 126 -88 215t-213 89t-213 -89t-88 -215q0 -127 87.5 -215t213.5 -88z" />
<glyph unicode="&#xb0;" horiz-adv-x="441" d="M220 699q53 0 98.5 -38t45.5 -105q0 -59 -42 -101t-101 -42q-48 0 -82.5 25.5t-48 57t-13.5 60.5q0 54 38.5 98.5t104.5 44.5zM220 642q-28 0 -51 -23.5t-23 -62.5q0 -36 21 -61t54 -25q32 0 53 25t21 61q0 39 -23.5 62.5t-51.5 23.5z" />
<glyph unicode="&#xb1;" d="M253 374h147v-62h-147v-150h-66v150h-148v62h148v150h66v-150zM400 47h-361v63h361v-63z" />
<glyph unicode="&#xb4;" horiz-adv-x="479" d="M366 673l-159 -107l-27 33l140 131z" />
<glyph unicode="&#xb5;" horiz-adv-x="405" d="M343 508v-508h-65v61q-8 -40 -31.5 -57t-47.5 -17q-56 0 -78 74v-233h-66v680h71v-328q0 -127 73 -127q74 0 74 127v328h70z" />
<glyph unicode="&#xb6;" d="M374 686v-858h-54v799h-46v-799h-53v478h-14q-95 0 -141.5 53.5t-46.5 145.5q0 181 207 181h148z" />
<glyph unicode="&#xbb;" horiz-adv-x="316" d="M203 262l-47 155h41l85 -155l-85 -148h-41zM81 262l-47 155h41l85 -155l-85 -148h-41z" />
<glyph unicode="&#xf7;" d="M400 312h-361v62h361v-62zM262 429h-85v96h85v-96zM262 161h-85v96h85v-96z" />
<glyph unicode="&#x131;" horiz-adv-x="195" d="M62 0v508h71v-508h-71z" />
<glyph unicode="&#x192;" d="M19 -149l10 67q15 -3 29 -3q54 0 70.5 31.5t30.5 130.5l46 326h-79l9 59h80l8 45q12 65 28.5 105.5t40 58.5t43.5 23t51 5q21 0 31 -3l-9 -62q-6 2 -18 2q-26 0 -44.5 -11.5t-28.5 -33t-14.5 -41.5t-8.5 -48l-5 -40h95l-9 -59h-95l-47 -330q-7 -53 -16.5 -88t-28 -69.5 t-50.5 -51.5t-78 -17q-13 0 -41 4z" />
<glyph unicode="&#x2d9;" horiz-adv-x="481" d="M202 686h77v-88h-77v88z" />
<glyph unicode="&#x401;" horiz-adv-x="387" d="M146 619v-229h182v-67h-182v-256h242v-67h-321v686h315v-67h-236zM116 853h79v-93h-79v93zM261 853h79v-93h-79v93z" />
<glyph unicode="&#x402;" horiz-adv-x="533" d="M-6 686h368v-67h-158v-242q52 30 109 30q88 0 134 -65q41 -57 41 -154q0 -77 -35 -131q-24 -37 -53 -51t-72 -14q-42 0 -76 12l14 70q28 -14 54 -14q44 0 68 43q21 37 21 88q0 57 -20 93q-30 55 -96 55q-52 0 -89 -34v-305h-78v619h-132v67z" />
<glyph unicode="&#x403;" horiz-adv-x="372" d="M67 0v686h306v-67h-227v-619h-79zM350 816l-187 -67l-20 39l175 98z" />
<glyph unicode="&#x404;" horiz-adv-x="436" d="M424 505l-69 -13q-12 61 -27 87q-29 53 -83 53q-61 0 -92 -68q-30 -66 -32 -172h192v-70h-194q3 -107 21 -169q30 -99 108 -99q58 0 87 60q17 35 21 75l72 -15q-9 -83 -50 -132q-44 -55 -124 -55q-124 0 -174 122q-37 90 -37 234q0 75 15 157t46 128q48 71 133 71 q88 0 137 -63q39 -52 50 -131z" />
<glyph unicode="&#x405;" horiz-adv-x="422" d="M390 532l-71 -17q-9 59 -42 91q-28 26 -68 26q-49 0 -74 -35q-22 -30 -22 -77q0 -57 42 -89q18 -13 102 -55q77 -37 103 -68q41 -48 41 -126q0 -87 -52 -141t-137 -54q-61 0 -110 32q-73 48 -87 153l71 19q16 -81 53 -112q30 -25 77 -25t77 32q27 30 27 90q0 48 -20 76 q-21 28 -76 56q-12 6 -38 18.5t-36.5 18t-26 14.5t-25.5 18q-60 50 -60 137t49 136q48 49 125 49q60 0 106 -35q57 -44 72 -132z" />
<glyph unicode="&#x406;" horiz-adv-x="212" d="M67 0v686h78v-686h-78z" />
<glyph unicode="&#x407;" horiz-adv-x="212" d="M67 0v686h78v-686h-78zM-9 840h79v-93h-79v93zM136 840h79v-93h-79v93z" />
<glyph unicode="&#x408;" horiz-adv-x="282" d="M148 686h79v-461v-23.5v-25t-0.5 -22.5t-1.5 -23.5t-2.5 -21t-4 -21.5t-6 -18.5t-8.5 -19t-11 -16.5q-37 -47 -106 -47q-56 0 -82 13v61q28 -7 61 -7q43 0 61 20q13 15 17 48t4 105v459z" />
<glyph unicode="&#x409;" horiz-adv-x="725" d="M349 0v619h-157q-1 -143 -11 -318q-8 -131 -22 -182q-14 -54 -46 -84q-50 -50 -117 -35v68q35 -2 60 17q26 19 36 64q13 55 21 213q6 109 12 324h303v-281h84q78 0 117 -37q53 -50 53 -169q0 -106 -46 -155q-42 -44 -135 -44h-152zM428 67h62q62 0 88 37q23 34 23 108 q0 70 -29 100q-26 26 -79 26h-65v-271z" />
<glyph unicode="&#x40a;" horiz-adv-x="748" d="M145 397h203v287h79v-287h84q77 0 117 -37q53 -49 53 -161q0 -106 -46 -155q-42 -44 -135 -44h-152v332h-203v-332h-78v684h78v-287zM427 67h62q62 0 88 37q23 32 23 108q0 65 -29 94q-26 26 -79 26h-65v-265z" />
<glyph unicode="&#x40b;" horiz-adv-x="528" d="M-6 686h365v-67h-155v-242q48 28 105 28q83 0 124 -52q40 -50 40 -142v-211h-75v190q0 145 -103 145q-51 0 -91 -30v-305h-78v619h-132v67z" />
<glyph unicode="&#x40c;" horiz-adv-x="464" d="M145 686v-298h49q51 0 71 24q18 21 22 90q5 80 10 105q10 45 34 64q25 21 65 21q19 0 32 -4v-66q-24 5 -43 -9q-18 -14 -20 -50q-3 -66 -11 -116q-5 -34 -20 -55q-21 -28 -54 -33v-3q65 -6 87 -68q12 -34 16 -131q1 -55 14 -73q14 -19 53 -14v-66q-15 -8 -36 -8 q-34 0 -58 16q-30 22 -41 71q-7 31 -11 106q-4 66 -15 87q-8 15 -22 26q-25 19 -71 19h-51v-321h-78v686h78zM347 815l-187 -67l-20 39l175 98z" />
<glyph unicode="&#x40e;" horiz-adv-x="393" d="M15 -4v65q26 -7 53 -7q48 0 76 38q19 26 34 71l-182 523h82l131 -416l115 416h73l-137 -465q-39 -135 -68 -175q-43 -59 -117 -59q-26 0 -60 9zM247 845h68q0 -54 -34 -90q-32 -35 -85 -35t-85 35q-34 36 -34 90h68q2 -27 7 -39q12 -33 44 -33t44 33q5 12 7 39z" />
<glyph unicode="&#x40f;" horiz-adv-x="490" d="M67 686h79v-619h199v619h78v-686h-143v-150h-70v150h-143v686z" />
<glyph unicode="&#x410;" horiz-adv-x="385" d="M153 686h82l154 -686h-80l-43 196h-155l-41 -196h-74zM253 263l-63 342l-65 -342h128z" />
<glyph unicode="&#x411;" horiz-adv-x="448" d="M67 0v686h313v-67h-237v-224h116q36 0 68.5 -15t51.5 -39q36 -46 36 -138q0 -113 -46 -160q-42 -43 -140 -43h-162zM143 67h85q61 0 88 35q23 30 23 93q0 67 -23 99q-26 34 -78 34h-95v-261z" />
<glyph unicode="&#x412;" d="M67 0v686h144q102 0 145 -47q41 -45 41 -123q0 -63 -21 -99q-20 -37 -65 -51q50 -17 78 -58q29 -43 29 -114q0 -104 -47 -151q-20 -20 -49 -30t-49 -11.5t-55 -1.5h-151zM145 393h64q61 0 86 25q24 24 24 80q0 74 -35 102q-23 19 -78 19h-61v-226zM145 67h74q64 0 89 25 q31 31 31 107q0 75 -39 107q-25 20 -84 20h-71v-259z" />
<glyph unicode="&#x413;" horiz-adv-x="372" d="M67 0v686h306v-67h-227v-619h-79z" />
<glyph unicode="&#x414;" horiz-adv-x="470" d="M402 -165v165h-334v-165h-72v232h40q35 61 52 118q27 88 39 218q14 142 12 283h277v-619h58v-232h-72zM119 67h219v552h-133q0 -209 -25 -350q-20 -112 -61 -202z" />
<glyph unicode="&#x415;" horiz-adv-x="387" d="M146 619v-229h182v-67h-182v-256h242v-67h-321v686h315v-67h-236z" />
<glyph unicode="&#x416;" horiz-adv-x="624" d="M351 686v-298h21q51 0 71 24q18 21 22 90q5 80 10 105q10 45 34 64q25 21 65 21q19 0 32 -4v-66q-24 5 -43 -9q-18 -14 -20 -50q-3 -66 -11 -116q-5 -34 -20 -55q-21 -28 -54 -33v-3q65 -6 87 -68q12 -34 16 -131q1 -55 14 -73q14 -19 53 -14v-66q-15 -8 -36 -8 q-34 0 -58 16q-30 22 -41 71q-7 31 -11 106q-4 66 -15 87q-8 15 -22 26q-25 19 -71 19h-23v-321h-78v321h-23q-46 0 -71 -19q-16 -12 -24 -32.5t-9.5 -33t-3.5 -47.5q-4 -75 -11 -106q-11 -49 -41 -71q-24 -16 -58 -16q-21 0 -36 8v66q39 -5 53 14q13 18 14 73q4 97 16 131 q22 62 87 68v3q-33 5 -54 33q-15 21 -20 55q-8 50 -11 116q-2 36 -20 50q-19 14 -43 9v66q13 4 32 4q40 0 65 -21q24 -19 34 -64q5 -25 10 -105q4 -69 22 -90q20 -24 71 -24h21v298h78z" />
<glyph unicode="&#x417;" horiz-adv-x="459" d="M43 183l74 9q2 -57 24 -95q25 -43 82 -43q56 0 86 39q26 34 26 96q0 73 -36 106q-32 30 -86 30h-45v67h45q28 0 51.5 13t35.5 32q15 26 15 88q0 52 -16 74q-24 33 -75 33q-40 0 -64 -25q-31 -33 -35 -91l-74 11q3 86 62 135q45 37 121 37q74 0 116 -42q47 -47 47 -130 q0 -65 -25 -108q-28 -48 -82 -56v-2q53 -7 85 -43q41 -43 41 -127q0 -86 -42 -140q-50 -64 -150 -64q-89 0 -134 58q-41 53 -47 138z" />
<glyph unicode="&#x418;" horiz-adv-x="524" d="M67 0v686h78v-465l-4 -66l19 43l219 451v37h78v-686h-78v470l4 67l-19 -47l-219 -449v-41h-78z" />
<glyph unicode="&#x419;" horiz-adv-x="524" d="M67 0v686h78v-465l-4 -66l19 43l219 451v37h78v-686h-78v470l4 67l-19 -47l-219 -449v-41h-78zM326 847h70q1 -56 -38 -92q-37 -35 -95 -35t-95 35q-39 36 -38 92h70q0 -26 10 -43q17 -31 53 -31t53 31q10 17 10 43z" />
<glyph unicode="&#x41a;" horiz-adv-x="464" d="M145 686v-298h49q51 0 71 24q18 21 22 90q5 80 10 105q10 45 34 64q25 21 65 21q19 0 32 -4v-66q-24 5 -43 -9q-18 -14 -20 -50q-3 -66 -11 -116q-5 -34 -20 -55q-21 -28 -54 -33v-3q65 -6 87 -68q12 -34 16 -131q1 -55 14 -73q14 -19 53 -14v-66q-15 -8 -36 -8 q-34 0 -58 16q-30 22 -41 71q-7 31 -11 106q-4 66 -15 87q-8 15 -22 26q-25 19 -71 19h-51v-321h-78v686h78z" />
<glyph unicode="&#x41b;" horiz-adv-x="495" d="M349 0v619h-157q-1 -143 -11 -318q-8 -131 -22 -182q-14 -54 -46 -84q-50 -50 -117 -35v68q35 -2 60 17q26 19 36 64q13 55 21 213q6 109 12 324h303v-686h-79z" />
<glyph unicode="&#x41c;" horiz-adv-x="616" d="M67 0v686h105l136 -558l139 558h102v-686h-76l6 585l-146 -585h-58l-143 588l5 -588h-70z" />
<glyph unicode="&#x41d;" horiz-adv-x="493" d="M145 395h203v291h78v-686h-78v328h-203v-328h-78v686h78v-291z" />
<glyph unicode="&#x41e;" horiz-adv-x="493" d="M246 699q95 0 147 -78q57 -83 57 -278q0 -184 -61 -277q-31 -48 -65.5 -63.5t-77.5 -15.5q-94 0 -147 78q-56 84 -56 278q0 191 60 278q53 78 143 78zM246 632q-43 0 -72 -33q-50 -57 -50 -256q0 -75 11.5 -149.5t39.5 -106.5q27 -33 71 -33q46 0 73 33q50 57 50 256 t-50 256q-30 33 -73 33z" />
<glyph unicode="&#x41f;" horiz-adv-x="493" d="M67 686h359v-686h-78v619h-203v-619h-78v686z" />
<glyph unicode="&#x420;" horiz-adv-x="406" d="M67 0v686h134q109 0 156 -55q46 -53 46 -151q0 -73 -31 -123q-47 -78 -159 -78h-67v-279h-79zM146 346h64q51 0 77 23q35 32 35 111q0 84 -37 117q-26 22 -79 22h-60v-273z" />
<glyph unicode="&#x421;" horiz-adv-x="422" d="M414 509l-71 -17q-12 85 -41 116q-22 24 -57 24q-44 0 -69 -32q-29 -36 -40.5 -117.5t-11.5 -155.5q0 -159 37 -222q29 -51 82 -51q36 0 60 26q32 34 40 108l71 -13q-23 -108 -64 -148q-40 -40 -108 -40q-99 0 -150 85q-49 78 -49 267q0 91 19 177t61 132q47 51 118 51 q69 0 113 -44q46 -46 60 -146z" />
<glyph unicode="&#x422;" horiz-adv-x="332" d="M126 0v619h-132v67h344v-67h-134v-619h-78z" />
<glyph unicode="&#x423;" horiz-adv-x="393" d="M15 -4v65q26 -7 53 -7q48 0 76 38q19 26 34 71l-182 523h82l131 -416l115 416h73l-137 -465q-39 -135 -68 -175q-43 -59 -117 -59q-26 0 -60 9z" />
<glyph unicode="&#x424;" horiz-adv-x="632" d="M277 709h78v-84q17 0 35.5 -2.5t49 -11t59.5 -29.5t49 -53q41 -64 41 -178q0 -112 -46 -177q-60 -85 -188 -87v-87h-78v87q-128 2 -188 87q-46 65 -46 177q0 114 41 178q20 32 49 53t59.5 29.5t49 11t35.5 2.5v84zM277 154v405q-69 3 -111 -45q-45 -51 -45 -161 q0 -91 31 -138q18 -27 50 -44.5t75 -16.5zM355 559v-405q43 -1 75 16.5t50 44.5q31 47 31 138q0 110 -45 161q-42 48 -111 45z" />
<glyph unicode="&#x425;" horiz-adv-x="385" d="M151 358l-132 328h84l92 -247l95 247h75l-133 -316l152 -370h-88l-109 285l-111 -285h-76z" />
<glyph unicode="&#x426;" horiz-adv-x="485" d="M67 0v686h79v-619h199v619h78v-619h58v-226h-73v159h-341z" />
<glyph unicode="&#x427;" horiz-adv-x="468" d="M323 0v302q-65 -18 -127 -18q-76 0 -110 37q-29 31 -29 89v276h78v-264v-8.5v-9.5t0.5 -8.5t2 -9.5t3.5 -8t5 -9t8 -8q17 -14 53 -14q53 0 116 17v322h78v-686h-78z" />
<glyph unicode="&#x428;" horiz-adv-x="710" d="M67 0v686h74v-621h177v621h74v-621h177v621h74v-686h-576z" />
<glyph unicode="&#x429;" horiz-adv-x="705" d="M67 0v686h75v-621h176v621h75v-621h176v621h75v-621h57v-224h-72v159h-562z" />
<glyph unicode="&#x42a;" horiz-adv-x="500" d="M125 0v619h-133v67h211v-281h84q78 0 117 -37q53 -50 53 -169q0 -106 -46 -155q-42 -44 -135 -44h-151zM203 67h62q62 0 88 37q23 34 23 108q0 70 -29 100q-26 26 -79 26h-65v-271z" />
<glyph unicode="&#x42b;" horiz-adv-x="579" d="M438 0v686h74v-686h-74zM67 0v686h74v-283h80q74 0 113 -37q53 -53 53 -165q0 -108 -46 -157q-19 -20 -44.5 -30.5t-42.5 -12t-44 -1.5h-143zM141 67h58q63 0 90 37q23 33 23 106q0 71 -29 100q-26 26 -81 26h-61v-269z" />
<glyph unicode="&#x42c;" horiz-adv-x="442" d="M67 0v686h78v-281h84q78 0 117 -37q53 -50 53 -169q0 -106 -46 -155q-42 -44 -135 -44h-151zM145 67h62q62 0 88 37q23 34 23 108q0 70 -29 100q-26 26 -79 26h-65v-271z" />
<glyph unicode="&#x42d;" horiz-adv-x="436" d="M14 182l76 7q4 -54 27 -92q26 -43 72 -43q58 0 89 54q36 61 38 214h-193v67h192q-1 49 -11 109.5t-30 91.5q-28 42 -79 42q-43 0 -69 -31q-30 -37 -40 -110l-72 14q9 80 52 134q46 60 127 60q79 0 129 -56q71 -78 71 -296q0 -211 -54 -287q-52 -73 -151 -73 q-81 0 -125 56q-41 54 -49 139z" />
<glyph unicode="&#x42e;" horiz-adv-x="654" d="M67 686h78v-291h74q-1 59 12.5 123.5t39.5 102.5q52 78 143 78q93 0 144 -77q53 -80 53 -270q0 -196 -57 -286q-50 -79 -140 -79q-94 0 -145 78q-54 82 -52 263h-72v-328h-78v686zM414 632q-44 0 -71 -33q-48 -57 -48 -256q0 -75 11.5 -149.5t37.5 -106.5q27 -33 70 -33 q42 0 69 33q48 58 48 256t-48 256q-27 33 -69 33z" />
<glyph unicode="&#x42f;" horiz-adv-x="435" d="M292 0v305h-96l-103 -305h-85l113 316q-41 13 -67 48q-37 51 -37 130q0 102 60 152q47 40 129 40h162v-686h-76zM292 372v247h-86q-55 0 -83 -32q-27 -31 -27 -93q0 -64 29 -93q31 -29 92 -29h75z" />
<glyph unicode="&#x430;" horiz-adv-x="405" d="M358 0h-64q-12 41 -10 74q-14 -37 -38 -60q-28 -27 -76 -27q-62 0 -98 39q-36 38 -36 111q0 118 90 158q62 27 151 21q2 97 -17 120q-19 24 -60 24q-45 0 -67 -37q-11 -20 -18 -57l-66 17q12 60 46 96q40 41 115 41q54 0 88 -23q19 -13 30.5 -29t16 -43t5.5 -44.5 t1 -58.5v-204q0 -81 7 -118zM277 255q-105 7 -140 -34q-25 -29 -25 -86q0 -47 19 -67q18 -20 47 -20q48 0 75 47q26 45 24 160z" />
<glyph unicode="&#x431;" horiz-adv-x="406" d="M106 444h2q38 62 110 62q79 0 118 -79q34 -70 34 -170q0 -135 -48 -207q-44 -63 -122 -63q-58 0 -99 43q-65 67 -65 252q0 109 15 204q9 59 28 101t61 69q31 20 96 35q39 9 66 13t57 11v-64q-14 -4 -68 -18q-76 -19 -94 -26q-36 -15 -56 -42q-33 -45 -35 -121zM202 48 q21 0 42.5 14.5t32.5 50.5q14 45 14 137q0 100 -15 140q-21 55 -70 55q-58 0 -78 -70q-13 -46 -13 -123q0 -95 16 -143q21 -61 71 -61z" />
<glyph unicode="&#x432;" horiz-adv-x="400" d="M62 0v508h175q53 0 84 -31q31 -32 31 -92q0 -39 -15 -68q-19 -34 -51 -47v-1q36 -12 57 -44t21 -84q0 -69 -36 -106q-33 -35 -87 -35h-179zM132 57h65q43 0 64 18q27 24 27 71q0 50 -25 74q-20 19 -61 19h-70v-182zM132 296h65q39 0 58 21q21 23 21 63q0 37 -23 56 q-20 15 -54 15h-67v-155z" />
<glyph unicode="&#x433;" horiz-adv-x="322" d="M62 0v508h256v-59h-185v-449h-71z" />
<glyph unicode="&#x434;" horiz-adv-x="408" d="M329 -123v123h-270v-126h-63v185h40q40 75 54 156q22 118 22 293h236v-449h46v-182h-65zM115 59h165v388h-104q-8 -157 -18 -222q-14 -94 -43 -166z" />
<glyph unicode="&#x435;" horiz-adv-x="388" d="M368 245h-257q-3 -113 28 -158q27 -39 74 -39q34 0 55 24q18 21 32 78l62 -17q-9 -43 -28 -75q-40 -71 -127 -71q-83 0 -127 65q-44 64 -44 194q0 146 54 217q42 57 112 57q72 0 115 -51q54 -65 51 -224zM113 304h176q-3 91 -22 121q-22 35 -65 35q-40 0 -64 -39 q-17 -28 -25 -117z" />
<glyph unicode="&#x436;" horiz-adv-x="503" d="M287 0h-71v238h-39q-21 0 -36 -17q-12 -14 -18 -64q-9 -79 -18 -106q-19 -57 -72 -57q-16 0 -29 7v57q26 -6 36 18q6 13 10.5 59t7.5 61q11 60 58 72v1q-38 12 -50 50q-3 11 -12 77q-6 41 -13 48q-9 9 -22 7v57q16 4 26 4q46 0 62 -51q3 -10 10 -63q5 -46 10 -61 q12 -40 51 -40h38v211h71v-211h38q39 0 51 40q5 15 10 61q7 53 10 63q16 51 62 51q10 0 26 -4v-57q-13 2 -22 -7q-7 -7 -13 -48q-9 -66 -12 -77q-12 -38 -50 -50v-1q47 -12 58 -72q3 -15 7.5 -61t10.5 -59q10 -24 36 -18v-57q-13 -7 -29 -7q-53 0 -72 57q-9 27 -18 106 q-6 50 -18 64q-15 17 -36 17h-39v-238z" />
<glyph unicode="&#x437;" horiz-adv-x="389" d="M36 149l73 7q-2 -46 15 -74q21 -34 68 -34q44 0 65 28q17 23 17 66q0 48 -26 72q-28 24 -75 24h-30v61h33q43 0 68 23q23 22 23 63q0 35 -16 53q-20 22 -55 22q-43 0 -66 -31q-17 -26 -19 -63l-65 11q7 71 52 110q39 33 102 33q70 0 107 -38q34 -34 34 -95q0 -42 -19 -70 q-22 -33 -66 -46v-1q40 -6 65 -33q32 -34 32 -97q0 -65 -37 -107q-41 -46 -121 -46q-86 0 -125 51q-32 42 -34 111z" />
<glyph unicode="&#x438;" horiz-adv-x="420" d="M62 0v508h72v-319l-4 -55l22 52l134 292v30h72v-508h-72v315l4 55l-22 -55l-134 -283v-32h-72z" />
<glyph unicode="&#x439;" horiz-adv-x="420" d="M265 676h59q0 -49 -29 -80q-30 -32 -86 -32q-57 0 -88 32q-29 31 -29 80h61q-2 -27 13 -47q16 -22 43 -22t43 22q15 20 13 47zM62 0v508h72v-319l-4 -55l22 52l134 292v30h72v-508h-72v315l4 55l-22 -55l-134 -283v-32h-72z" />
<glyph unicode="&#x43a;" horiz-adv-x="360" d="M134 0h-72v508h72v-211h47q38 0 51 40q5 14 10 61q5 44 11 63q16 51 62 51q10 0 26 -4v-57q-13 2 -22 -7q-7 -7 -13 -48q-9 -66 -12 -77q-12 -38 -50 -50v-1q47 -12 58 -72q3 -15 7.5 -61t10.5 -59q10 -24 36 -18v-57q-13 -7 -29 -7q-53 0 -72 57q-9 27 -18 106 q-6 50 -18 64q-15 17 -36 17h-49v-238z" />
<glyph unicode="&#x43b;" horiz-adv-x="396" d="M4 0v58q46 -3 65 43q18 46 24 234q3 72 3 173h238v-508h-72v444h-103q-1 -46 -2 -92.5t-1 -61.5q-1 -55 -9 -137q-8 -78 -37 -115q-40 -49 -106 -38z" />
<glyph unicode="&#x43c;" horiz-adv-x="523" d="M62 0v508h100l102 -388l97 388h100v-508h-67v347l2 92l-17 -76l-94 -363h-51l-96 360l-19 78l2 -90v-348h-59z" />
<glyph unicode="&#x43d;" horiz-adv-x="416" d="M62 0v508h72v-213h148v213h72v-508h-72v236h-148v-236h-72z" />
<glyph unicode="&#x43e;" horiz-adv-x="406" d="M203 520q65 0 107 -48q60 -69 60 -218q0 -152 -60 -219q-43 -48 -107 -48t-107 48q-60 67 -60 219q0 149 60 218q42 48 107 48zM115 254q0 -93 15 -143q19 -63 73 -63t73 63q15 50 15 143q0 92 -15 143q-20 63 -73 63t-73 -63q-15 -51 -15 -143z" />
<glyph unicode="&#x43f;" horiz-adv-x="416" d="M62 0v508h292v-508h-72v449h-148v-449h-72z" />
<glyph unicode="&#x440;" horiz-adv-x="424" d="M62 -172v680h67v-84q9 38 34 63q29 29 75 29q67 0 105 -56q45 -65 45 -200q0 -125 -35 -192q-40 -77 -119 -77q-42 0 -70 22q-20 16 -30 39v-224h-72zM134 294v-92q0 -82 24 -117q22 -33 62 -33q48 0 69 41q20 37 20 161q0 118 -25 164q-20 38 -59 38t-62 -31 q-29 -39 -29 -131z" />
<glyph unicode="&#x441;" horiz-adv-x="369" d="M349 356l-67 -14q-2 24 -10.5 52.5t-20.5 41.5q-20 24 -52 24q-36 0 -57 -30q-27 -38 -27 -161q0 -156 26 -191q23 -30 56 -30q40 0 61 32q20 31 24 84l67 -8q-3 -35 -17.5 -72.5t-33.5 -58.5q-36 -38 -99 -38q-70 0 -113 48q-50 56 -50 210q0 168 61 234q39 41 103 41 q61 0 95 -34q45 -44 54 -130z" />
<glyph unicode="&#x442;" horiz-adv-x="323" d="M126 0v449h-122v59h315v-59h-122v-449h-71z" />
<glyph unicode="&#x443;" horiz-adv-x="305" d="M-4 508h77l83 -351l87 351h66l-145 -557q-20 -76 -47 -105t-71 -29q-20 0 -41 7v64q18 -8 36 -8t27 7.5t17 26.5q10 24 18 60l14 61z" />
<glyph unicode="&#x444;" horiz-adv-x="546" d="M238 686h70v-166q86 -2 140 -63q62 -69 62 -204q0 -124 -52 -192q-55 -71 -150 -71v-162h-70v162q-95 0 -150 71q-52 67 -52 192q0 135 62 204q54 61 140 63v166zM240 51v409q-74 -8 -106 -71q-20 -40 -20 -131q0 -105 24 -146q32 -61 102 -61zM306 460v-409q70 0 102 61 q24 41 24 146q0 91 -20 131q-32 63 -106 71z" />
<glyph unicode="&#x445;" horiz-adv-x="316" d="M121 269l-106 239h77l69 -176l65 176h69l-100 -239l119 -269h-77l-82 203l-80 -203h-73z" />
<glyph unicode="&#x446;" horiz-adv-x="405" d="M62 0v508h71v-449h147v449h71v-449h50v-175h-62v116h-277z" />
<glyph unicode="&#x447;" horiz-adv-x="400" d="M267 0v219q-62 -16 -107 -16q-54 0 -81 28t-27 87v190h71v-172q0 -44 14 -59q15 -15 53 -15q40 0 77 12v234h71v-508h-71z" />
<glyph unicode="&#x448;" horiz-adv-x="582" d="M62 0v508h66v-449h130v449h66v-449h130v449h66v-508h-458z" />
<glyph unicode="&#x449;" horiz-adv-x="615" d="M62 0v508h67v-449h130v449h67v-449h130v449h67v-449h50v-171h-63v112h-448z" />
<glyph unicode="&#x44a;" horiz-adv-x="468" d="M127 0v449h-123v59h194v-204h78q82 0 121 -41q35 -37 35 -111q0 -60 -23 -95q-38 -57 -134 -57h-148zM198 59h54q60 0 82 25q20 23 20 69q0 54 -26 75q-20 17 -73 17h-57v-186z" />
<glyph unicode="&#x44b;" horiz-adv-x="537" d="M407 0v508h68v-508h-68zM62 0v508h68v-208h73q78 0 117 -41q35 -36 35 -107q0 -55 -21 -91q-37 -61 -132 -61h-140zM130 59h53q59 0 81 25q19 21 19 65q0 53 -25 74q-21 18 -76 18h-52v-182z" />
<glyph unicode="&#x44c;" horiz-adv-x="403" d="M62 0v508h71v-204h78q82 0 121 -41q35 -36 35 -111q0 -60 -23 -95q-37 -57 -134 -57h-148zM133 59h54q60 0 82 25q20 23 20 69q0 54 -26 75q-20 17 -73 17h-57v-186z" />
<glyph unicode="&#x44d;" horiz-adv-x="397" d="M36 154l73 6q-2 -49 14 -76q20 -36 66 -36q53 0 76 46q23 44 20 139h-144v59h144q2 75 -21 123q-20 45 -72 45q-37 0 -59 -27q-24 -30 -24 -85l-70 8q4 68 39 111q43 53 123 53q75 0 115 -60q45 -66 45 -206q0 -143 -45 -205t-129 -62q-74 0 -113 46q-40 49 -38 121z" />
<glyph unicode="&#x44e;" horiz-adv-x="551" d="M62 0v508h67v-213h66q0 46 15 97t41 81q41 47 105 47q63 0 103 -48q56 -67 56 -217q0 -153 -56 -220q-41 -48 -106 -48q-64 0 -106 52q-26 33 -40 89.5t-13 107.5h-65v-236h-67zM269 252q0 -89 14 -140q18 -64 71 -64t70 63q15 53 15 143t-15 143q-18 63 -69 63 q-54 0 -72 -65q-14 -54 -14 -143z" />
<glyph unicode="&#x44f;" horiz-adv-x="404" d="M271 0v224h-80l-95 -224h-83l105 229q-32 10 -54 35q-34 39 -34 103q0 78 51 115q17 12 37 18t33.5 7t39.5 1h151v-508h-71zM271 279v170h-76q-49 0 -70 -22q-21 -23 -21 -64q0 -37 16 -57q22 -27 73 -27h78z" />
<glyph unicode="&#x451;" horiz-adv-x="388" d="M368 245h-257q-3 -113 28 -158q27 -39 74 -39q34 0 55 24q18 21 32 78l62 -17q-9 -43 -28 -75q-40 -71 -120 -71q-91 0 -134 65q-44 64 -44 192q0 148 54 219q42 57 112 57q72 0 115 -51q54 -65 51 -224zM113 304h176q-3 91 -22 121q-23 35 -63 35q-43 0 -66 -39 q-18 -29 -25 -117zM99 686h74v-84h-74v84zM238 686h74v-84h-74v84z" />
<glyph unicode="&#x452;" horiz-adv-x="402" d="M59 562h-57v57h57v67h71v-67h147v-57h-147v-153q9 38 35 66t70 28q60 0 88 -42q24 -35 24 -141v-286q0 -108 -22 -150q-30 -57 -94 -57q-23 0 -49 9v65q20 -8 43 -8q38 0 47 40q4 13 4 103v265q0 79 -10 105q-13 35 -49 35q-30 0 -50 -23q-37 -42 -37 -162v-256h-71v562z " />
<glyph unicode="&#x453;" horiz-adv-x="322" d="M62 0v508h256v-59h-185v-449h-71zM288 673l-159 -107l-27 33l140 131z" />
<glyph unicode="&#x454;" horiz-adv-x="397" d="M288 160l73 -6q2 -72 -38 -121q-39 -46 -113 -46q-84 0 -129 62t-45 205q0 140 45 206q40 60 115 60q80 0 123 -53q35 -43 39 -111l-70 -8q0 55 -24 85q-22 27 -59 27q-52 0 -72 -45q-23 -48 -21 -123h144v-59h-144q-3 -95 20 -139q23 -46 76 -46q46 0 66 36q16 27 14 76 z" />
<glyph unicode="&#x455;" horiz-adv-x="334" d="M310 393l-62 -17q-7 46 -31 67q-19 17 -48 17q-36 0 -55 -25q-14 -19 -14 -45q0 -41 30 -65q9 -8 70 -39q57 -31 72 -43q49 -39 49 -107q0 -69 -39 -108q-39 -41 -110 -41q-93 0 -133 67q-21 34 -26 75l63 17q4 -48 33 -76q24 -22 62 -22q40 0 59 25q17 20 17 53 q0 42 -29 67q-18 15 -91 52q-27 13 -45 26.5t-35 42.5t-17 67q0 66 44 107q34 32 94 32q59 0 94 -31q33 -29 48 -96z" />
<glyph unicode="&#x456;" horiz-adv-x="195" d="M62 0v508h71v-508h-71zM59 686h77v-88h-77v88z" />
<glyph unicode="&#x457;" horiz-adv-x="309" d="M118 0v508h71v-508h-71zM59 686h73v-88h-73v88zM177 686h73v-88h-73v88z" />
<glyph unicode="&#x458;" horiz-adv-x="193" d="M60 508h71v-526q0 -36 -1 -55t-9.5 -46.5t-25.5 -40.5q-23 -18 -85 -18h-40v64h35q34 0 46 18q9 14 9 81v523zM57 686h77v-87h-77v87z" />
<glyph unicode="&#x459;" horiz-adv-x="630" d="M4 0v58q46 -3 65 43q18 46 24 234q3 72 3 173h238v-204h78q82 0 121 -41q35 -36 35 -111q0 -60 -23 -95q-37 -57 -134 -57h-149v444h-103q-1 -46 -2 -92.5t-1 -61.5q-1 -55 -9 -137q-8 -78 -37 -115q-40 -49 -106 -38zM334 59h54q60 0 82 25q20 23 20 69q0 54 -26 75 q-20 17 -73 17h-57v-186z" />
<glyph unicode="&#x45a;" horiz-adv-x="650" d="M62 0v508h72v-209h148v209h72v-209h78q81 0 121 -41q35 -36 35 -106q0 -59 -23 -95q-37 -57 -134 -57h-149v240h-148v-240h-72zM354 59h56q58 0 80 25q20 23 20 69q0 47 -26 69q-21 18 -73 18h-57v-181z" />
<glyph unicode="&#x45b;" horiz-adv-x="402" d="M59 686h71v-67h147v-57h-147v-151q9 39 38 66q29 26 68 26q58 0 86 -40q15 -22 20 -59.5t5 -107.5v-296h-71v296q0 99 -14 121q-15 24 -47 24q-36 0 -57 -35q-28 -46 -28 -160v-246h-71v562h-57v57h57v67z" />
<glyph unicode="&#x45c;" horiz-adv-x="360" d="M134 0h-72v508h72v-211h47q38 0 51 40q5 14 10 61q5 44 11 63q16 51 62 51q10 0 26 -4v-57q-13 2 -22 -7q-7 -7 -13 -48q-9 -66 -12 -77q-12 -38 -50 -50v-1q47 -12 58 -72q3 -15 7.5 -61t10.5 -59q10 -24 36 -18v-57q-13 -7 -29 -7q-53 0 -72 57q-9 27 -18 106 q-6 50 -18 64q-15 17 -36 17h-49v-238zM313 673l-159 -107l-27 33l140 131z" />
<glyph unicode="&#x45e;" horiz-adv-x="305" d="M-4 508h77l83 -351l87 351h66l-145 -557q-20 -76 -47 -105t-71 -29q-20 0 -41 7v64q18 -8 36 -8t27 7.5t17 26.5q10 24 18 60l14 61zM201 674h59q0 -48 -27 -78q-28 -32 -80 -32t-80 32q-27 30 -27 78h59q0 -28 9 -45q14 -22 39 -22t39 22q9 17 9 45z" />
<glyph unicode="&#x45f;" horiz-adv-x="416" d="M62 508h72v-446h148v446h72v-508h-114v-140h-64v140h-114v508z" />
<glyph unicode="&#x490;" horiz-adv-x="372" d="M67 686h234v118h72v-185h-227v-619h-79v686z" />
<glyph unicode="&#x491;" horiz-adv-x="322" d="M62 508h188v122h68v-181h-185v-449h-71v508z" />
<glyph unicode="&#x2000;" horiz-adv-x="443" />
<glyph unicode="&#x2001;" horiz-adv-x="886" />
<glyph unicode="&#x2002;" horiz-adv-x="443" />
<glyph unicode="&#x2003;" horiz-adv-x="886" />
<glyph unicode="&#x2004;" horiz-adv-x="295" />
<glyph unicode="&#x2005;" horiz-adv-x="221" />
<glyph unicode="&#x2006;" horiz-adv-x="147" />
<glyph unicode="&#x2007;" horiz-adv-x="147" />
<glyph unicode="&#x2008;" horiz-adv-x="110" />
<glyph unicode="&#x2009;" horiz-adv-x="177" />
<glyph unicode="&#x200a;" horiz-adv-x="49" />
<glyph unicode="&#x2010;" horiz-adv-x="247" d="M36 290h175v-63h-175v63z" />
<glyph unicode="&#x2011;" horiz-adv-x="247" d="M36 290h175v-63h-175v63z" />
<glyph unicode="&#x2012;" horiz-adv-x="247" d="M36 290h175v-63h-175v63z" />
<glyph unicode="&#x2013;" horiz-adv-x="370" d="M36 290h298v-63h-298v63z" />
<glyph unicode="&#x2014;" horiz-adv-x="563" d="M36 290h491v-63h-491v63z" />
<glyph unicode="&#x2018;" horiz-adv-x="194" d="M102 574h35v-106h-91v98l60 126h42z" />
<glyph unicode="&#x2019;" horiz-adv-x="141" d="M66 580h-35v106h91v-98l-60 -125h-43z" />
<glyph unicode="&#x201c;" horiz-adv-x="336" d="M242 574h36v-106h-91v98l59 126h44zM102 574h36v-106h-92v98l60 126h42z" />
<glyph unicode="&#x201d;" horiz-adv-x="336" d="M94 580h-37v106h91v-98l-58 -125h-44zM234 580h-36v106h92v-98l-60 -125h-43z" />
<glyph unicode="&#x201e;" horiz-adv-x="336" d="M94 0h-37v106h91v-98l-58 -126h-44zM234 0h-36v106h92v-98l-60 -126h-43z" />
<glyph unicode="&#x2020;" horiz-adv-x="441" d="M186 686h69v-202h124v-65h-124v-591h-69v591h-124v65h124v202z" />
<glyph unicode="&#x2022;" horiz-adv-x="694" d="M348 494q58 0 99 -42t41 -102q0 -67 -44.5 -105.5t-95.5 -38.5q-58 0 -100 42.5t-42 101.5q0 60 42 102t100 42z" />
<glyph unicode="&#x2026;" horiz-adv-x="952" d="M116 110h89v-110h-89v110zM432 110h88v-110h-88v110zM747 110h89v-110h-89v110z" />
<glyph unicode="&#x202f;" horiz-adv-x="177" />
<glyph unicode="&#x205f;" horiz-adv-x="221" />
<glyph unicode="&#x20ac;" horiz-adv-x="440" d="M418 142v-87q-29 -29 -60 -44q-50 -24 -103 -24q-81 0 -130 68q-48 66 -54 195h-67l22 60h42q-2 36 0 79h-63l22 60h46q3 51 19.5 106t42.5 88q46 56 121 56q57 0 111 -27q37 -19 65 -46l-25 -69q-32 34 -64 52q-45 26 -88 26q-72 0 -95 -99q-9 -43 -11 -87h219l-23 -60 h-199q-3 -33 1 -79h170l-22 -60h-145q5 -62 12 -94q23 -105 102 -105q27 0 56 13q61 26 98 78z" />
<glyph unicode="&#x2122;" horiz-adv-x="581" d="M78 274v341h-77v50h215v-50h-78v-341h-60zM238 274v391h77l74 -288l73 288h77v-391h-59l3 292l-76 -292h-43l-73 293l3 -293h-56z" />
<glyph unicode="&#x2206;" horiz-adv-x="688" d="M29 0l275 686h77l278 -686h-630zM133 68h421l-211 530z" />
<glyph unicode="&#x221a;" horiz-adv-x="686" d="M686 853v-67h-203l-224 -786h-88l-86 309h-85v67h144l39 -134q8 -27 30 -142h5q7 39 20 92.5t23.5 91.5t27 96t21.5 75l111 398h265z" />
<glyph unicode="&#x221e;" horiz-adv-x="686" d="M344 302q-30 -48 -78.5 -78.5t-103.5 -30.5q-57 0 -100 43.5t-43 114.5q0 72 43 114t94 42q115 0 186 -108q28 47 72 78t99 31q66 0 110 -42.5t44 -115.5q0 -75 -47.5 -116t-110.5 -41q-93 0 -165 109zM379 351q58 -96 121 -96q43 0 69.5 28t26.5 69q0 45 -29 69.5 t-67 24.5q-36 0 -62 -23.5t-59 -71.5zM307 350q-59 96 -121 96q-42 0 -69 -28t-27 -69q0 -40 27.5 -67t68.5 -27q66 0 121 95z" />
<glyph unicode="&#x2248;" d="M48 192l-42 32q3 5 12.5 23t12 22.5t11.5 18.5t13.5 18t13.5 13t17 11.5t19 5.5t24 3q32 0 98 -36q37 -21 52 -27t34 -6q23 0 38.5 14t38.5 59l43 -29q-29 -70 -59.5 -91t-69.5 -21q-32 0 -91 34t-84 34q-27 0 -45.5 -18.5t-35.5 -59.5zM48 343l-42 32q3 5 12.5 23 t12 22.5t11.5 18.5t13.5 18t13.5 13t17 11.5t19 5.5t24 3q32 0 98 -36q61 -34 86 -34q19 0 34.5 12.5t23 25t19.5 36.5l43 -29q-29 -70 -60.5 -91t-71.5 -21q-26 0 -86.5 34t-85.5 34q-27 0 -45.5 -18.5t-35.5 -59.5z" />
<glyph unicode="&#x2260;" d="M296 434h104v-63h-133l-25 -56h158v-63h-188l-51 -108l-57 27l39 81h-104v63h133l25 56h-158v63h188l51 108l57 -27z" />
<glyph unicode="&#x2264;" d="M408 624v-68l-300 -164l300 -163v-68l-377 199v62zM408 130v-67h-377v67h377z" />
<glyph unicode="&#x2265;" d="M31 161v68l300 164l-300 163v68l377 -202v-62zM31 63v67h377v-67h-377z" />
<glyph unicode="&#x25fc;" horiz-adv-x="510" d="M0 510h510v-510h-510v510z" />
</font>
</defs>
</svg>
